:SAMPLES-PER-SECOND 24
:FULLY-SPECIFIED
:DEGREES
439
root  7.33858 39.761 34.8905 178.584 -7.50388 175.282
RightUpLeg  -6.73599 -13.912 -9.12632
RightLeg  17.7613 8.29648 2.90788
RightFoot  -5.60871 -0.0798464 0.858366
RightToes  -1.74623e-010 0 -2.59999e-017
Spine  11.1023 0.844699 4.32754
Spine1  15.5783 1.56144 -1.11013
HEad  -7.10682 -1.12183 1.79856
LeftShoulder1  1.91185 -3.34529 -21.5546
LeftArm  22.1613 -11.9098 -54.9083
LeftForeArm  65.0388 -79.0857 -76.8379
LeftHand  0.265712 8.14892 12.2223
RightShoulder  2.96912 5.56101 26.7542
RightArm  -26.4183 1.54899 30.1793
RightForeArm  -17.3399 18.0012 7.73302
RightHand  -1.38137 0.695731 -26.1104
LeftUpLeg  -18.6105 17.0462 -7.28477
LeftLeg  16.259 5.00897 0.344148
LeftFoot  -1.51522 0.731566 -8.41025
LeftToes  -6.27559e-011 -2.10356e-011 8.24929e-012
440
root  7.32392 39.9631 36.4597 179.098 -9.33786 174.58
RightUpLeg  -7.24345 -11.2782 -10.0704
RightLeg  13.3843 3.84897 2.11593
RightFoot  -2.31801 -0.144851 1.63594
RightToes  -1.74623e-010 0 -2.59999e-017
Spine  10.2662 0.369523 3.20417
Spine1  14.9848 0.781953 -0.486963
HEad  -5.58997 -1.44016 2.68615
LeftShoulder1  1.78338 -3.16147 -20.3169
LeftArm  25.5151 -17.3793 -58.5081
LeftForeArm  62.0848 -78.9465 -74.7147
LeftHand  0.238877 8.01449 11.6813
RightShoulder  2.88951 5.5217 25.9839
RightArm  -16.6202 -1.20475 29.5362
RightForeArm  -20.8984 22.4498 6.43709
RightHand  -1.25306 1.06376 -22.4481
LeftUpLeg  -15.8131 18.7256 -6.93943
LeftLeg  22.8144 4.22068 2.47834
LeftFoot  -1.73004 0.541637 -6.31849
LeftToes  -6.27559e-011 -2.10356e-011 8.24929e-012
441
root  7.25287 39.9236 38.0214 179.274 -11.4287 174.696
RightUpLeg  -8.16312 -9.469 -10.6174
RightLeg  10.746 -0.536722 1.90977
RightFoot  0.300911 -0.31389 3.08706
RightToes  -1.74623e-010 0 -2.59999e-017
Spine  8.80458 -0.312922 2.80853
Spine1  15.4468 -0.0393003 -0.185499
HEad  -3.79879 -1.8568 3.7237
LeftShoulder1  1.65821 -2.8864 -19.4509
LeftArm  28.3233 -22.0558 -62.6061
LeftForeArm  58.0077 -78.7119 -71.1279
LeftHand  0.212028 7.84571 11.2231
RightShoulder  2.88359 5.5523 25.8019
RightArm  -10.6829 -4.39514 27.9382
RightForeArm  -15.7983 28.1248 6.83337
RightHand  -1.15851 1.19754 -20.4065
LeftUpLeg  -11.7937 16.5458 -3.60105
LeftLeg  28.8569 6.01747 3.91936
LeftFoot  -2.75003 0.408493 -5.21266
LeftToes  -6.27559e-011 -2.10356e-011 8.24929e-012
442
root  7.11307 39.7649 39.5867 179.027 -13.8547 175.167
RightUpLeg  -9.53341 -9.8751 -11.2602
RightLeg  10.2115 -2.63 2.12344
RightFoot  2.04207 -0.509787 4.46098
RightToes  -1.74623e-010 0 -2.59999e-017
Spine  7.38497 -1.06656 1.90407
Spine1  16.3352 -1.2077 0.914236
HEad  -2.36255 -2.18417 4.27311
LeftShoulder1  1.60175 -2.7316 -19.17
LeftArm  30.6524 -25.0331 -66.967
LeftForeArm  53.9452 -78.3994 -66.8239
LeftHand  0.192444 7.71754 10.8752
RightShoulder  2.90033 5.54203 26.033
RightArm  -7.55033 -7.66561 26.3149
RightForeArm  -8.83574 34.039 8.08736
RightHand  -1.16384 1.39122 -19.9326
LeftUpLeg  -7.0736 15.2607 0.313799
LeftLeg  33.5848 7.73493 5.84898
LeftFoot  -3.25547 0.223371 -2.88364
LeftToes  -6.27559e-011 -2.10356e-011 8.24929e-012
443
root  6.91483 39.5247 41.1907 178.27 -16.8893 175.542
RightUpLeg  -10.5639 -11.5218 -12.4181
RightLeg  10.6291 -3.775 2.3789
RightFoot  3.49772 -0.679104 5.39102
RightToes  -1.74623e-010 0 -2.59999e-017
Spine  7.0249 -1.96212 -0.0151397
Spine1  16.5206 -2.81787 2.86268
HEad  -1.07676 -2.29233 4.67457
LeftShoulder1  1.58994 -2.72695 -18.9868
LeftArm  32.5267 -25.5302 -70.607
LeftForeArm  52.9685 -78.3004 -65.5175
LeftHand  0.212745 7.88712 11.0888
RightShoulder  2.89559 5.47966 26.2107
RightArm  -6.35422 -11.3541 26.1058
RightForeArm  -5.3178 38.5867 9.256
RightHand  -1.13243 1.27193 -19.7409
LeftUpLeg  -1.38918 14.3682 4.52459
LeftLeg  36.0007 9.78135 7.90297
LeftFoot  -3.5361 0.119706 -1.43509
LeftToes  -6.27559e-011 -2.10356e-011 8.24929e-012
444
root  6.67718 39.2412 42.8452 177.209 -20.3745 176.207
RightUpLeg  -10.6449 -12.4058 -13.5861
RightLeg  9.87215 -6.32858 2.33193
RightFoot  5.41485 -0.862998 6.10663
RightToes  -1.74623e-010 0 -2.59999e-017
Spine  7.17174 -2.96524 -2.18806
Spine1  16.3545 -4.62308 4.83782
HEad  0.276006 -2.31245 5.42439
LeftShoulder1  1.57822 -2.75495 -18.6621
LeftArm  34.2221 -24.6729 -72.8825
LeftForeArm  53.1471 -78.3313 -66.0543
LeftHand  0.210259 7.90351 10.9138
RightShoulder  2.90127 5.46394 26.3356
RightArm  -7.22176 -14.8736 27.5146
RightForeArm  -5.80939 40.4732 9.90836
RightHand  -1.04131 1.015 -18.8874
LeftUpLeg  4.5505 14.002 9.40836
LeftLeg  35.6589 10.8138 8.58416
LeftFoot  -3.71906 0.0162725 0.0727978
LeftToes  -6.27559e-011 -2.10356e-011 8.24929e-012
445
root  6.37552 38.8724 44.6213 176.45 -24.5173 177.303
RightUpLeg  -10.9884 -12.8192 -14.8209
RightLeg  9.10615 -9.65044 2.17806
RightFoot  6.30983 -0.932158 6.27965
RightToes  -1.74623e-010 0 -2.59999e-017
Spine  6.97067 -3.99241 -4.58369
Spine1  16.5124 -6.71989 7.59682
HEad  1.77229 -2.76894 6.43826
LeftShoulder1  1.57859 -2.76387 -18.6298
LeftArm  36.4077 -24.117 -73.7825
LeftForeArm  53.4972 -78.3824 -66.9157
LeftHand  0.176904 7.81811 9.78745
RightShoulder  2.91247 5.41097 26.6672
RightArm  -9.12579 -17.2138 29.5528
RightForeArm  -7.88244 39.4939 9.70138
RightHand  -0.995578 0.968885 -18.208
LeftUpLeg  8.35023 13.5452 14.2161
LeftLeg  34.8425 10.7646 8.30842
LeftFoot  -0.851788 -0.151371 1.61304
LeftToes  -6.27559e-011 -2.10356e-011 8.24929e-012
446
root  5.94641 38.4359 46.5852 176.345 -29.4483 177.829
RightUpLeg  -11.3775 -14.4105 -17.3791
RightLeg  8.31543 -12.1548 2.29959
RightFoot  7.0158 -1.11869 7.213
RightToes  -1.74623e-010 0 -2.59999e-017
Spine  7.10386 -5.04414 -7.40044
Spine1  16.2954 -8.93646 10.3618
HEad  3.08066 -3.85909 7.43476
LeftShoulder1  1.5969 -2.78865 -18.8368
LeftArm  38.8755 -24.1178 -73.2418
LeftForeArm  57.516 -78.6905 -71.1874
LeftHand  0.153931 7.78658 8.86522
RightShoulder  2.89265 5.25134 27.0522
RightArm  -10.6513 -18.2312 31.6241
RightForeArm  -9.83598 36.3303 8.81059
RightHand  -1.03756 1.16168 -18.4195
LeftUpLeg  9.93851 12.1036 16.8789
LeftLeg  33.6515 9.47046 7.07577
LeftFoot  1.75923 0.434011 -3.87271
LeftToes  -6.27559e-011 -2.10356e-011 8.24929e-012
447
root  5.4032 37.9396 48.6937 176.685 -33.7872 177.61
RightUpLeg  -11.1898 -15.7763 -20.7201
RightLeg  6.07129 -14.2826 2.43925
RightFoot  8.84723 -1.47463 8.63138
RightToes  -1.74623e-010 0 -2.59999e-017
Spine  7.80597 -5.41247 -9.96256
Spine1  15.5612 -10.2745 11.8733
HEad  3.09005 -5.55217 8.22077
LeftShoulder1  1.62517 -2.85787 -19.0184
LeftArm  40.9342 -24.7916 -72.0385
LeftForeArm  62.7165 -78.9812 -77.1447
LeftHand  0.106043 7.48484 7.52611
RightShoulder  2.92337 5.19712 27.6313
RightArm  -11.1144 -18.2629 32.6501
RightForeArm  -11.6339 32.4765 7.79794
RightHand  -1.02264 1.13549 -18.2259
LeftUpLeg  11.1359 12.4886 18.0986
LeftLeg  30.882 3.22621 2.45757
LeftFoot  -4.55713 0.928216 -16.002
LeftToes  -6.27559e-011 -2.10356e-011 8.24929e-012
448
root  4.89259 37.3582 50.9475 177.141 -36.8121 177.592
RightUpLeg  -11.38 -15.0044 -22.9014
RightLeg  2.79339 -15.5178 1.76978
RightFoot  8.19412 -1.0681 6.47785
RightToes  -1.74623e-010 0 -2.59999e-017
Spine  8.7882 -4.5089 -11.6425
Spine1  15.1682 -10.2796 13.7844
HEad  1.15728 -8.41403 9.16427
LeftShoulder1  1.64948 -2.9025 -19.2355
LeftArm  42.5103 -25.9968 -71.3858
LeftForeArm  62.5467 -78.9705 -77.7467
LeftHand  0.0400738 7.34685 4.46924
RightShoulder  3.0793 5.34813 28.8537
RightArm  -10.5542 -18.2408 32.093
RightForeArm  -11.4549 28.9381 6.86336
RightHand  -0.959017 1.17513 -17.0238
LeftUpLeg  9.82236 16.4095 18.812
LeftLeg  31.2491 -7.06036 -4.33041
LeftFoot  -16.097 -0.726389 -21.0405
LeftToes  -6.27559e-011 -2.10356e-011 8.24929e-012
449
root  4.51713 37.0312 52.9972 178.159 -39.2866 177.288
RightUpLeg  -11.4715 -14.0602 -24.0595
RightLeg  -0.954488 -13.943 0.76729
RightFoot  3.95624 -0.34412 2.68874
RightToes  -1.74623e-010 0 -2.59999e-017
Spine  9.34599 -2.98506 -12.441
Spine1  14.9245 -9.16873 15.0642
HEad  -1.50555 -12.4318 10.7356
LeftShoulder1  1.66915 -2.89563 -19.596
LeftArm  43.0178 -25.6969 -69.8653
LeftForeArm  62.4974 -78.9718 -76.665
LeftHand  -0.0039838 7.91693 1.72312
RightShoulder  3.24804 5.49735 30.1819
RightArm  -8.0784 -19.4554 32.3365
RightForeArm  -8.36503 24.6407 5.46601
RightHand  -0.934059 1.71062 -15.4277
LeftUpLeg  5.07986 19.1633 16.3753
LeftLeg  35.1154 -9.78071 -6.94553
LeftFoot  -21.6789 -1.25151 -15.3096
LeftToes  -6.27559e-011 -2.10356e-011 8.24929e-012
450
root  4.16792 37.3341 54.5048 179.37 -40.9521 177.105
RightUpLeg  -12.2031 -14.2276 -24.1835
RightLeg  -0.835659 -9.89126 0.821791
RightFoot  1.79907 -0.551694 4.893
RightToes  -1.74623e-010 0 -2.59999e-017
Spine  8.75003 -2.07208 -10.3248
Spine1  14.6066 -7.15539 12.6739
HEad  -2.98883 -16.0388 11.9166
LeftShoulder1  1.72884 -2.96325 -20.2928
LeftArm  41.0561 -21.6681 -65.3126
LeftForeArm  69.3972 -79.2345 -81.7107
LeftHand  -0.0151933 8.6982 1.07211
RightShoulder  3.30989 5.5485 30.6697
RightArm  -10.2666 -21.7312 34.4669
RightForeArm  3.18626 18.0585 7.16044
RightHand  -0.642433 1.17062 -11.4892
LeftUpLeg  1.43634 18.4682 12.3503
LeftLeg  35.2403 -7.78203 -5.50434
LeftFoot  -21.2421 -0.937777 -12.2551
LeftToes  -6.27559e-011 -2.10356e-011 8.24929e-012
451
root  3.86096 38.3449 55.458 179.811 -41.4202 177.868
RightUpLeg  -13.6639 -15.4433 -21.8093
RightLeg  4.37968 -4.29126 1.96374
RightFoot  4.82844 -1.36805 9.84349
RightToes  -1.74623e-010 0 -2.59999e-017
Spine  7.74006 -1.56961 -6.63068
Spine1  14.0888 -5.10761 9.03217
HEad  -2.93264 -18.1494 11.5466
LeftShoulder1  1.813 -3.04633 -21.304
LeftArm  36.8499 -14.0399 -59.2906
LeftForeArm  78.9733 -79.3605 -90.9418
LeftHand  -0.000613582 9.1897 1.43736
RightShoulder  3.27281 5.54959 30.2485
RightArm  -15.6803 -23.7553 36.5351
RightForeArm  17.747 11.1922 9.97316
RightHand  -0.114324 -0.611086 -2.51187
LeftUpLeg  1.2358 17.2424 10.0928
LeftLeg  29.9219 -6.88272 -3.9163
LeftFoot  -16.709 -0.521174 -13.1708
LeftToes  -6.27559e-011 -2.10356e-011 8.24929e-012
